<svg width="32" height="32" viewBox="0 0 32 32" fill="none" xmlns="http://www.w3.org/2000/svg">
<path fill-rule="evenodd" clip-rule="evenodd" d="M2 5C2 4.44772 2.44772 4 3 4H29C29.5523 4 30 4.44772 30 5V22C30 22.5523 29.5523 23 29 23H18.8868L16.866 26.5C16.6874 26.8094 16.3573 27 16 27C15.6427 27 15.3126 26.8094 15.134 26.5L13.1132 23H3C2.44772 23 2 22.5523 2 22V5ZM4 6V21H13.6906C14.0479 21 14.378 21.1906 14.5566 21.5L16 24L17.4434 21.5C17.622 21.1906 17.9521 21 18.3094 21H28V6H4Z" fill="#222831"/>
<path fill-rule="evenodd" clip-rule="evenodd" d="M15.94 11.5452C15.8884 11.4808 15.8327 11.4185 15.773 11.3587C14.8943 10.4801 13.4697 10.4801 12.591 11.3587C11.7123 12.2374 11.7123 13.662 12.591 14.5407C12.6507 14.6005 12.713 14.6562 12.7775 14.7078L12.7678 14.7175L15.9497 17.8995L19.1317 14.7175L19.122 14.7078C19.1865 14.6562 19.2488 14.6005 19.3085 14.5407C20.1872 13.662 20.1872 12.2374 19.3085 11.3587C18.4298 10.4801 17.0052 10.4801 16.1265 11.3587C16.0668 11.4185 16.0111 11.4808 15.9595 11.5452L15.9497 11.5355L15.94 11.5452Z" fill="#E0325C"/>
</svg>
